<svg width="1440" height="1172" viewBox="0 0 1440 1172" fill="none" xmlns="http://www.w3.org/2000/svg">
<path fill-rule="evenodd" clip-rule="evenodd" d="M-51.1859 432.395C10.6693 421.137 86.0741 449.148 120.318 501.192C155.307 554.367 101.249 625.483 116.343 687.002C129.173 739.293 199.339 768.894 199.188 822.643C199.034 877.23 160.127 927.727 115.573 960.148C72.9488 991.164 16.5752 994.447 -36.5381 994.174C-82.608 993.937 -122.127 968.338 -167.175 958.696C-224.467 946.432 -293.766 968.915 -336.978 929.863C-380.136 890.86 -373.318 823.206 -380.331 766.059C-387.894 704.437 -421.992 629.393 -379.46 583.701C-334.549 535.453 -245.868 584.645 -185.613 556.873C-128.707 530.644 -113.028 443.651 -51.1859 432.395Z" fill="url(#paint0_linear)"/>
<path d="M1138.3 977.049C1093.9 1005.85 1087.12 1054 1087.12 1075C1119 1080.5 1225 1103.45 1248 1109.5C1285.5 1119.37 1395 1153 1440.3 1171.5V871.549C1430.3 859.149 1418.13 848.716 1409.3 845.049C1369.3 825.849 1323.63 850.382 1305.8 865.049C1257.4 905.049 1230.63 923.049 1223.3 927.049C1165.3 958.249 1142.46 973.382 1138.3 977.049Z" fill="url(#paint1_linear)"/>
<path d="M1131.86 241.583C1098.6 224.499 1095.77 191.042 1098.38 176.7C1195.33 160.861 1266.5 139.538 1319.66 111.427C1354.09 93.2144 1364.07 87.2714 1391.99 63.6738C1416.87 40.6949 1434.08 15.7897 1441.77 -0.000349459L1443.17 472.998C1440.34 474.341 1428.38 476.249 1403.17 473.137C1371.66 469.247 1341.5 425.352 1318.31 369.433C1295.11 313.514 1258.04 292.643 1219.49 278.777C1180.94 264.912 1173.44 262.938 1131.86 241.583Z" fill="url(#paint2_linear)"/>
<defs>
<linearGradient id="paint0_linear" x1="179.637" y1="414.487" x2="-84.576" y2="976.583" gradientUnits="userSpaceOnUse">
<stop stop-color="#D855ED" stop-opacity="0.54"/>
<stop offset="1" stop-color="#69CCFF" stop-opacity="0.83"/>
</linearGradient>
<linearGradient id="paint1_linear" x1="1249.5" y1="819.5" x2="1514.5" y2="1322" gradientUnits="userSpaceOnUse">
<stop stop-color="#D855ED" stop-opacity="0.7"/>
<stop offset="1" stop-color="#69CCFF" stop-opacity="0.82"/>
</linearGradient>
<linearGradient id="paint2_linear" x1="1269.97" y1="57.0997" x2="1426.02" y2="503.058" gradientUnits="userSpaceOnUse">
<stop stop-color="#FF7F96" stop-opacity="0.68"/>
<stop offset="0.9999" stop-color="#D855ED" stop-opacity="0.34"/>
</linearGradient>
</defs>
</svg>
