<svg width="171" height="60" viewBox="0 0 171 60" fill="none" xmlns="http://www.w3.org/2000/svg">
<path d="M48.8494 28.9163C48.8494 35.1406 47.5078 39.3442 42.4098 44.2997C37.3119 49.2551 31.6773 48.9505 24.9522 48.9505C17.3613 48.9505 10.2553 46.4982 5.74025 41.08C2.19594 36.8426 1 32.3003 1 26.3227C1.01068 20.8975 3.02025 15.667 6.64381 11.633C11.7232 5.98308 18.4934 5 25.8303 5C32.6029 5 38.4668 7.1865 42.9085 11.633C47.3502 16.0794 48.8494 21.0989 48.8494 28.9163Z" fill="#FF006E" stroke="#FF006E" stroke-width="2" stroke-miterlimit="10"/>
<path d="M23.2785 28.234C23.2699 28.2195 23.267 28.2108 23.2661 28.2073V21.6983C23.267 21.6948 23.2699 21.6861 23.2785 21.6716C23.2958 21.6423 23.3372 21.5892 23.4235 21.5288C23.6038 21.4026 23.9027 21.3008 24.2598 21.3008C24.617 21.3008 24.9159 21.4026 25.0962 21.5288C25.1825 21.5892 25.2238 21.6423 25.2412 21.6716C25.2498 21.6861 25.2527 21.6948 25.2536 21.6983V28.2073C25.2527 28.2108 25.2498 28.2195 25.2412 28.234C25.2238 28.2633 25.1825 28.3164 25.0962 28.3768C24.9159 28.503 24.617 28.6048 24.2598 28.6048C23.9027 28.6048 23.6038 28.503 23.4235 28.3768C23.3372 28.3164 23.2958 28.2633 23.2785 28.234ZM23.2658 21.7001C23.2658 21.7001 23.2658 21.6996 23.266 21.6986L23.2658 21.7001ZM25.2539 21.7001C25.2538 21.7001 25.2537 21.6996 25.2536 21.6986L25.2539 21.7001ZM25.2539 28.2055C25.2539 28.2055 25.2539 28.206 25.2536 28.207L25.2539 28.2055Z" fill="#FF006E" stroke="#2E323E" stroke-width="2"/>
<path d="M33.9119 28.234C33.9033 28.2195 33.9004 28.2108 33.8995 28.2073V21.6983C33.9004 21.6948 33.9033 21.6861 33.9119 21.6716C33.9293 21.6423 33.9706 21.5892 34.0569 21.5288C34.2372 21.4026 34.5361 21.3008 34.8933 21.3008C35.2504 21.3008 35.5493 21.4026 35.7296 21.5288C35.8159 21.5892 35.8573 21.6423 35.8746 21.6716C35.8832 21.6861 35.8861 21.6948 35.887 21.6983V28.2073C35.8861 28.2108 35.8832 28.2195 35.8746 28.234C35.8573 28.2633 35.8159 28.3164 35.7296 28.3768C35.5493 28.503 35.2504 28.6048 34.8933 28.6048C34.5361 28.6048 34.2372 28.503 34.0569 28.3768C33.9706 28.3164 33.9293 28.2633 33.9119 28.234ZM33.8992 21.7001C33.8992 21.7001 33.8992 21.6996 33.8995 21.6986L33.8992 21.7001ZM35.8873 21.7001C35.8873 21.7001 35.8872 21.6996 35.8871 21.6986L35.8873 21.7001ZM35.8873 28.2055C35.8873 28.2055 35.8873 28.206 35.8871 28.207L35.8873 28.2055Z" fill="#FF006E" stroke="#2E323E" stroke-width="2"/>
<path d="M38.7082 34.8168C40.4126 34.7722 41.7799 34.1822 41.7621 33.4991C41.7443 32.816 40.3481 32.2984 38.6437 32.343C36.9393 32.3876 35.5721 32.9776 35.5899 33.6607C35.6077 34.3438 37.0038 34.8614 38.7082 34.8168Z" fill="#FFCCC9"/>
<path d="M24.5095 33.8222C24.5452 33.1398 23.1939 32.5142 21.4912 32.4249C19.7886 32.3355 18.3793 32.8163 18.3436 33.4987C18.3079 34.1812 19.6592 34.8068 21.3619 34.8961C23.0645 34.9854 24.4738 34.5047 24.5095 33.8222Z" fill="#FFCCC9"/>
<path d="M83.76 42.432C83.632 43.04 83.04 43.344 81.984 43.344C81.12 43.344 80.496 43.152 80.112 42.768C79.952 42.224 79.728 41.568 79.44 40.8C79.152 40 78.816 39.088 78.432 38.064C78.24 36.816 78.048 35.936 77.856 35.424C77.696 34.912 77.488 34.528 77.232 34.272C76.752 34.304 76.064 34.368 75.168 34.464C74.272 34.528 73.328 34.624 72.336 34.752C71.344 34.848 70.416 34.992 69.552 35.184C68.688 35.344 68.064 35.52 67.68 35.712C67.52 36.512 67.328 37.392 67.104 38.352C66.88 39.312 66.608 40.336 66.288 41.424C66.192 41.744 65.968 41.968 65.616 42.096C65.264 42.256 64.832 42.336 64.32 42.336C63.808 42.336 63.36 42.24 62.976 42.048C62.624 41.888 62.448 41.632 62.448 41.28C62.448 40.64 62.832 38.736 63.6 35.568C63.568 35.44 63.552 35.248 63.552 34.992C63.552 34.576 63.6 34.064 63.696 33.456C63.824 32.816 63.952 32.208 64.08 31.632C64.208 31.056 64.32 30.56 64.416 30.144C64.544 29.728 64.608 29.504 64.608 29.472L66.144 25.2C66.208 24.784 66.368 24.224 66.624 23.52C66.912 22.816 67.216 22.096 67.536 21.36C67.856 20.624 68.16 19.936 68.448 19.296C68.736 18.624 68.928 18.112 69.024 17.76C69.312 16.704 70.08 16.176 71.328 16.176C72.352 16.176 73.008 16.56 73.296 17.328C73.296 17.328 73.392 17.504 73.584 17.856C73.776 18.208 74.032 18.656 74.352 19.2C74.672 19.744 75.008 20.352 75.36 21.024C75.744 21.664 76.096 22.288 76.416 22.896C76.736 23.472 77.008 24 77.232 24.48C77.456 24.928 77.584 25.232 77.616 25.392C77.872 26 78.192 26.704 78.576 27.504C78.96 28.272 79.424 29.136 79.968 30.096C80.288 30.512 80.576 31.072 80.832 31.776C81.12 32.448 81.376 33.136 81.6 33.84C81.824 34.544 82.016 35.184 82.176 35.76C82.336 36.336 82.48 36.72 82.608 36.912C82.608 37.136 82.672 37.488 82.8 37.968C82.96 38.416 83.104 38.896 83.232 39.408C83.392 39.92 83.536 40.4 83.664 40.848C83.792 41.296 83.856 41.616 83.856 41.808C83.856 41.968 83.824 42.176 83.76 42.432ZM75.36 30.336C75.104 29.568 74.864 28.912 74.64 28.368C74.448 27.824 74.208 27.28 73.92 26.736C73.664 26.192 73.36 25.584 73.008 24.912C72.656 24.208 72.208 23.312 71.664 22.224C70.928 23.568 70.4 25.12 70.08 26.88C69.408 28.192 68.928 29.584 68.64 31.056C69.632 30.768 70.432 30.624 71.04 30.624C71.264 30.624 71.424 30.64 71.52 30.672C72.064 30.544 72.72 30.48 73.488 30.48C74.256 30.48 74.88 30.432 75.36 30.336ZM104.79 18.528C104.694 18.816 104.646 19.376 104.646 20.208C104.646 20.688 104.646 21.296 104.646 22.032C104.678 22.768 104.694 23.376 104.694 23.856C104.694 24.304 104.694 24.704 104.694 25.056C104.694 25.408 104.662 25.696 104.598 25.92C104.63 26.048 104.646 26.192 104.646 26.352C104.646 26.512 104.646 26.688 104.646 26.88C104.646 27.328 104.614 27.904 104.55 28.608C104.486 29.28 104.454 29.744 104.454 30C104.454 30.064 104.454 30.128 104.454 30.192C104.486 30.224 104.502 30.272 104.502 30.336C104.214 32.064 104.022 33.632 103.926 35.04C103.862 36.416 103.75 37.6 103.59 38.592C103.462 39.584 103.222 40.352 102.87 40.896C102.55 41.408 101.99 41.664 101.19 41.664C100.518 41.664 99.9264 41.504 99.4144 41.184V40.848C98.4544 41.264 97.1744 41.472 95.5744 41.472C94.5184 41.472 93.5424 41.28 92.6464 40.896C91.7824 40.512 91.0304 39.984 90.3904 39.312C89.7504 38.608 89.2544 37.792 88.9024 36.864C88.5504 35.936 88.3744 34.928 88.3744 33.84C88.3744 33.232 88.4384 32.64 88.5664 32.064C88.7264 31.456 88.9184 30.896 89.1424 30.384C89.3664 29.84 89.6064 29.36 89.8624 28.944C90.1504 28.496 90.4224 28.128 90.6784 27.84C91.3184 27.136 92.2464 26.496 93.4624 25.92C94.6784 25.344 95.9744 25.056 97.3504 25.056C98.2784 25.056 99.2224 25.232 100.182 25.584C100.182 25.104 100.198 24.528 100.23 23.856C100.294 23.184 100.358 22.4 100.422 21.504L100.23 18.24C100.23 18.08 100.214 17.952 100.182 17.856C100.182 17.728 100.182 17.6 100.182 17.472C100.182 16.416 100.31 15.616 100.566 15.072C100.854 14.528 101.414 14.256 102.246 14.256C102.758 14.256 103.158 14.32 103.446 14.448C103.766 14.576 104.006 14.8 104.166 15.12C104.358 15.408 104.486 15.84 104.55 16.416C104.614 16.96 104.694 17.664 104.79 18.528ZM99.8464 30C99.2064 29.552 98.4224 29.328 97.4944 29.328C96.8224 29.328 96.2464 29.376 95.7664 29.472C95.3184 29.568 94.9344 29.744 94.6144 30C94.2944 30.224 94.0224 30.544 93.7984 30.96C93.5744 31.344 93.3504 31.824 93.1264 32.4C92.9344 32.944 92.8384 33.456 92.8384 33.936C92.8384 34.96 93.1904 35.76 93.8944 36.336C94.6304 36.912 95.5104 37.2 96.5344 37.2C97.4304 37.2 98.2944 36.88 99.1264 36.24C99.4144 34.928 99.6064 34.016 99.7024 33.504C99.8304 32.96 99.8944 32.496 99.8944 32.112C99.8944 31.76 99.8784 31.44 99.8464 31.152C99.8144 30.832 99.7984 30.56 99.7984 30.336C99.7984 30.272 99.7984 30.224 99.7984 30.192C99.8304 30.128 99.8464 30.064 99.8464 30ZM124.161 40.8C123.745 41.088 123.073 41.376 122.145 41.664C121.217 41.92 120.257 42.144 119.265 42.336L117.297 41.952C117.009 41.856 116.529 41.632 115.857 41.28C115.217 40.928 114.561 40.4 113.889 39.696C113.217 38.96 112.625 38.032 112.113 36.912C111.601 35.76 111.345 34.368 111.345 32.736C111.345 32.16 111.473 31.488 111.729 30.72C112.017 29.92 112.433 29.184 112.977 28.512C113.521 27.808 114.193 27.216 114.993 26.736C115.825 26.256 116.785 26.016 117.873 26.016C120.049 26.016 122.017 26.72 123.777 28.128C125.313 30.24 126.081 32.576 126.081 35.136C126.081 37.024 125.441 38.912 124.161 40.8ZM121.809 33.984C121.649 32.736 121.249 31.76 120.609 31.056C120.001 30.32 119.217 29.952 118.257 29.952C117.617 29.952 117.009 30.272 116.433 30.912C115.889 31.52 115.617 32.416 115.617 33.6C115.617 34.08 115.681 34.592 115.809 35.136C115.937 35.648 116.145 36.128 116.433 36.576C116.721 36.992 117.089 37.344 117.537 37.632C117.985 37.888 118.529 38.016 119.169 38.016C120.193 38.016 120.897 37.712 121.281 37.104C121.665 36.464 121.857 35.68 121.857 34.752C121.857 34.624 121.841 34.512 121.809 34.416C121.809 34.288 121.809 34.144 121.809 33.984ZM144.891 36.48C144.795 37.472 144.459 38.384 143.883 39.216C143.339 40.016 142.779 40.832 142.203 41.664C141.851 41.952 141.339 42.192 140.667 42.384C140.027 42.608 139.387 42.784 138.747 42.912C138.107 43.04 137.547 43.136 137.067 43.2C136.619 43.264 136.427 43.296 136.491 43.296C136.171 43.296 135.755 43.232 135.243 43.104C134.763 43.008 134.283 42.896 133.803 42.768C133.355 42.672 132.971 42.56 132.651 42.432C132.363 42.336 132.235 42.288 132.267 42.288C131.979 42.256 131.611 42.16 131.163 42C130.715 41.808 130.283 41.6 129.867 41.376C129.483 41.12 129.147 40.864 128.859 40.608C128.539 40.32 128.379 40.048 128.379 39.792C128.379 39.536 128.443 39.28 128.571 39.024C128.699 38.736 128.875 38.48 129.099 38.256C129.323 38 129.547 37.808 129.771 37.68C130.027 37.52 130.283 37.44 130.539 37.44L133.851 38.688C134.459 38.88 135.051 39.024 135.627 39.12C136.235 39.184 136.827 39.216 137.403 39.216C137.947 39.216 138.427 39.12 138.843 38.928C139.291 38.704 139.627 38.448 139.851 38.16L140.571 36.72C140.507 36.144 140.267 35.696 139.851 35.376C139.467 35.056 138.971 34.784 138.363 34.56C137.787 34.336 137.163 34.128 136.491 33.936C135.819 33.744 135.195 33.488 134.619 33.168L132.555 31.872C131.883 31.008 131.531 29.68 131.499 27.888C131.691 26.768 132.171 25.872 132.939 25.2C132.971 25.168 133.179 25.024 133.563 24.768C133.947 24.48 134.539 24.08 135.339 23.568C135.467 23.568 135.867 23.536 136.539 23.472C137.243 23.408 138.203 23.312 139.419 23.184C139.963 23.184 141.291 23.568 143.403 24.336C143.819 24.752 144.027 25.328 144.027 26.064C144.027 26.64 143.883 27.136 143.595 27.552C143.339 27.936 142.955 28.128 142.443 28.128C141.899 28.128 141.291 28 140.619 27.744C139.979 27.456 139.371 27.312 138.795 27.312C137.995 27.312 137.259 27.392 136.587 27.552C135.947 27.68 135.627 28 135.627 28.512C135.627 29.248 135.947 29.696 136.587 29.856C141.483 30.944 144.251 33.152 144.891 36.48ZM167.67 40.08C166.646 41.104 165.494 41.968 164.214 42.672C162.934 43.408 161.638 43.776 160.326 43.776C159.142 43.776 157.622 43.584 155.766 43.2C155.126 42.784 154.486 42.288 153.846 41.712C153.206 41.104 152.63 40.448 152.118 39.744C151.606 39.008 151.19 38.224 150.87 37.392C150.55 36.528 150.39 35.648 150.39 34.752C150.39 34.496 150.406 34.16 150.438 33.744C150.47 33.296 150.502 32.864 150.534 32.448C150.598 32 150.646 31.616 150.678 31.296C150.71 30.976 150.726 30.816 150.726 30.816C151.366 29.792 152.038 28.784 152.742 27.792C153.478 26.768 154.502 25.872 155.814 25.104C157.894 24.656 159.398 24.432 160.326 24.432C160.806 24.432 161.222 24.464 161.574 24.528C161.926 24.56 162.262 24.656 162.582 24.816C162.934 24.944 163.27 25.152 163.59 25.44C163.942 25.728 164.342 26.096 164.79 26.544C165.302 27.088 165.702 27.456 165.99 27.648C166.31 27.84 166.47 28.016 166.47 28.176C166.47 31.12 165.558 33.12 163.734 34.176C162.934 34.464 161.894 34.784 160.614 35.136C159.334 35.456 157.59 35.76 155.382 36.048C155.83 37.264 156.422 38.176 157.158 38.784C157.894 39.392 158.726 39.696 159.654 39.696C161.03 39.696 162.758 38.88 164.838 37.248C165.158 36.96 165.558 36.816 166.038 36.816C166.55 36.816 166.998 37.008 167.382 37.392C167.798 37.776 168.006 38.256 168.006 38.832C168.006 39.248 167.894 39.664 167.67 40.08ZM162.246 29.808C161.638 28.816 160.918 28.32 160.086 28.32C159.734 28.32 159.35 28.368 158.934 28.464C158.518 28.56 158.086 28.704 157.638 28.896C157.222 29.056 156.822 29.264 156.438 29.52C156.086 29.776 155.798 30.08 155.574 30.432L155.094 31.872C156.182 31.776 157.142 31.696 157.974 31.632C158.806 31.568 159.526 31.472 160.134 31.344C160.742 31.216 161.222 31.04 161.574 30.816C161.926 30.592 162.15 30.256 162.246 29.808Z" fill="#FF006E"/>
</svg>
