<?xml version="1.0" encoding="utf-8"?>
<!-- Generator: Adobe Illustrator 25.3.0, SVG Export Plug-In . SVG Version: 6.00 Build 0)  -->
<svg version="1.1" id="Calque_1" xmlns="http://www.w3.org/2000/svg" xmlns:xlink="http://www.w3.org/1999/xlink" x="0px" y="0px"
	 viewBox="0 0 512 512" style="enable-background:new 0 0 512 512;" xml:space="preserve">
<style type="text/css">
	.st0{display:none;}
	.st1{display:inline;}
	.st2{fill:none;stroke:#000000;stroke-width:16;stroke-linecap:round;stroke-linejoin:round;stroke-miterlimit:10;}
</style>
<g id="layer" class="st0">
	<g class="st1">
		<line class="st2" x1="169.4" y1="169.4" x2="342.6" y2="342.6"/>
		<line class="st2" x1="342.6" y1="169.4" x2="169.4" y2="342.6"/>
	</g>
	<g class="st1">
		<path d="M256,59c26.6,0,52.4,5.2,76.7,15.5c23.5,9.9,44.5,24.1,62.6,42.2s32.3,39.2,42.2,62.6c10.3,24.3,15.5,50.1,15.5,76.7
			s-5.2,52.4-15.5,76.7c-9.9,23.5-24.1,44.5-42.2,62.6s-39.2,32.3-62.6,42.2C308.4,447.8,282.6,453,256,453s-52.4-5.2-76.7-15.5
			c-23.5-9.9-44.5-24.1-62.6-42.2s-32.3-39.2-42.2-62.6C64.2,308.4,59,282.6,59,256s5.2-52.4,15.5-76.7
			c9.9-23.5,24.1-44.5,42.2-62.6s39.2-32.3,62.6-42.2C203.6,64.2,229.4,59,256,59 M256,43C138.4,43,43,138.4,43,256
			s95.4,213,213,213s213-95.4,213-213S373.6,43,256,43L256,43z"/>
	</g>
</g>
<g id="expanded">
	<g>
		<path d="M267.3,256l80.9-80.9c3.1-3.1,3.1-8.2,0-11.3s-8.2-3.1-11.3,0L256,244.7l-80.9-80.9c-3.1-3.1-8.2-3.1-11.3,0
			s-3.1,8.2,0,11.3l80.9,80.9l-80.9,80.9c-3.1,3.1-3.1,8.2,0,11.3c1.6,1.6,3.6,2.3,5.7,2.3s4.1-0.8,5.7-2.3l80.9-80.9l80.9,80.9
			c1.6,1.6,3.6,2.3,5.7,2.3s4.1-0.8,5.7-2.3c3.1-3.1,3.1-8.2,0-11.3L267.3,256z"/>
		<path d="M256,59c26.6,0,52.4,5.2,76.7,15.5c23.5,9.9,44.5,24.1,62.6,42.2s32.3,39.2,42.2,62.6c10.3,24.3,15.5,50.1,15.5,76.7
			s-5.2,52.4-15.5,76.7c-9.9,23.5-24.1,44.5-42.2,62.6s-39.2,32.3-62.6,42.2C308.4,447.8,282.6,453,256,453s-52.4-5.2-76.7-15.5
			c-23.5-9.9-44.5-24.1-62.6-42.2s-32.3-39.2-42.2-62.6C64.2,308.4,59,282.6,59,256s5.2-52.4,15.5-76.7
			c9.9-23.5,24.1-44.5,42.2-62.6s39.2-32.3,62.6-42.2C203.6,64.2,229.4,59,256,59 M256,43C138.4,43,43,138.4,43,256
			s95.4,213,213,213s213-95.4,213-213S373.6,43,256,43L256,43z"/>
	</g>
</g>
</svg>
